<svg xmlns="http://www.w3.org/2000/svg" viewBox="0 0 383.24 54.35"><defs><style>.cls-1{fill:#fff;}</style></defs><title>sfda_logo_white</title><g id="Layer_2" data-name="Layer 2"><g id="Layer_1-2" data-name="Layer 1"><path class="cls-1" d="M355.23,33.54a1.92,1.92,0,0,1,1.66.84l-.75.36a1.13,1.13,0,0,0-.41-.39,1.28,1.28,0,0,0-1.15.08.51.51,0,0,0-.26.44c0,.24.22.44.67.59l.62.21a2.58,2.58,0,0,1,1.09.6,1.22,1.22,0,0,1,.35.87,1.41,1.41,0,0,1-.57,1.15,2.47,2.47,0,0,1-2.74.07,1.7,1.7,0,0,1-.64-1.09l.94-.17a1.18,1.18,0,0,0,.22.61,1.07,1.07,0,0,0,.84.32,1.13,1.13,0,0,0,.72-.23.76.76,0,0,0,.24-.87.65.65,0,0,0-.15-.23,1.69,1.69,0,0,0-.28-.19,3.2,3.2,0,0,0-.4-.17l-.59-.2c-.84-.29-1.27-.71-1.27-1.27a1.14,1.14,0,0,1,.54-.95,2.22,2.22,0,0,1,1.32-.38"/><polygon class="cls-1" points="361.1 34.34 358.95 34.34 358.95 35.55 361.02 35.55 361.02 36.26 358.95 36.26 358.95 38.65 358.02 38.65 358.02 33.64 361.1 33.64 361.1 34.34"/><path class="cls-1" d="M363.23,37.94h.42a4.36,4.36,0,0,0,1-.11,2,2,0,0,0,.74-.36,1.58,1.58,0,0,0,.69-1.33,1.62,1.62,0,0,0-.68-1.34,3,3,0,0,0-1.79-.46h-.42Zm-.93.71v-5h1.29a5.71,5.71,0,0,1,1.47.15,2.84,2.84,0,0,1,1,.49,2.26,2.26,0,0,1,0,3.73,3,3,0,0,1-1,.5,5.92,5.92,0,0,1-1.45.14Z"/><path class="cls-1" d="M370.83,36.72l-.92-1.7-1,1.7Zm.38.71h-2.64l-.69,1.22h-1l3.05-5.33,2.94,5.33h-1Z"/><path class="cls-1" d="M350.74,10.21c-11.58-7.59-33.62,17.54-33.62,17.54v.92l6.81-6.6c13.33-11.65,19.58-5,19.58-5,9.62,10.39-29.2,35.52-29.2,35.52l.14.35c8.42-3.3,25.83-17.69,25.83-17.69,20-18.32,10.46-25,10.46-25"/><path class="cls-1" d="M383.24,14.07v-.36a213,213,0,0,0-24.92,10.46s-.91-7.23,12.07-11l-.07-.7s-17.9,3.86-18.39,15.72c0,0-19.23,14.25-12.35,23.31,0,0,5.54,6.94,21.62-2.32,0,0,10.81-6.6,14.6-9.76l-.07-.77S355,55.9,347.79,45.51s31.09-30.25,35.45-31.44"/><path class="cls-1" d="M358,.52a5,5,0,1,0,5,5,5,5,0,0,0-5-5"/><path class="cls-1" d="M.5,17.89c-.26-.27-.47-.5-.47-1.53a3.84,3.84,0,0,1,3.84-3.55A6.85,6.85,0,0,1,6,13.36l-.47,1a3.46,3.46,0,0,0-1.66-.44C2.58,13.89,1.1,15,1.1,16c0,.76,0,1.1.35,1.42.39.53,1.18.45,2.34.45H6.32L5.71,19H0V17.89Z"/><rect class="cls-1" x="8.56" y="0.22" width="2.37" height="18.74"/><path class="cls-1" d="M29.51,15.65c0,7.63-3.11,8.42-8.58,8.53-.69,0-2.63,0-2.63,0s-.64-.89-1.53-2.37c4.26,0,8.05.4,9.16-1.23.5-.74,1.21-1.85,1.21-4.69,0-4.42-1.68-8.19-5.63-8.11-2.64,0-5.69,1.21-5.69,6.16,0,2.16,1.13,2.69,3.08,2.69h6.37L23.64,19H20.08c-4.89,0-6.63-.58-6.63-5.06a8.33,8.33,0,0,1,8.06-8.53c5.84,0,8,5.53,8,10.27"/><path class="cls-1" d="M32.83,19,31.62,16.6h9.1c2.5,0,4,.18,4.9-1,.58-.74.79-1.42.79-3.16,0-2.21-3-4.58-5.84-4.58-4,0-5.06,2.37-6.16,5.37H31.9s.35-1.26.61-2a8.07,8.07,0,0,1,8.06-5.69c4.73,0,8.37,4.11,8.37,7.74a8.23,8.23,0,0,1-.82,3.32h2.61V19Z"/><polygon class="cls-1" points="53.2 16.6 53.2 0.22 55.57 0.22 55.57 18.96 49.52 18.96 49.52 16.6 53.2 16.6"/><rect class="cls-1" x="58.78" y="0.22" width="2.37" height="18.74"/><path class="cls-1" d="M79.74,15.65c0,7.63-3.11,8.42-8.59,8.53-.68,0-2.63,0-2.63,0s-.63-.89-1.52-2.37c4.26,0,8,.4,9.16-1.23.5-.74,1.21-1.85,1.21-4.69,0-4.42-1.69-8.19-5.64-8.11-2.63,0-5.68,1.21-5.68,6.16,0,2.16,1.13,2.69,3.08,2.69H75.5L73.87,19H70.31c-4.89,0-6.63-.58-6.63-5.06a8.32,8.32,0,0,1,8.05-8.53c5.85,0,8,5.53,8,10.27"/><path class="cls-1" d="M89.58,17.89c-.26-.27-.47-.5-.47-1.53A3.85,3.85,0,0,1,93,12.81a7,7,0,0,1,2.14.55l-.48,1A3.46,3.46,0,0,0,93,13.89c-1.29,0-2.76,1.1-2.76,2.13,0,.76,0,1.1.34,1.42.4.53,1.18.45,2.34.45H95.4L94.79,19H89.08V17.89Z"/><rect class="cls-1" x="97.64" y="0.22" width="2.37" height="18.74"/><path class="cls-1" d="M112,2.15A1.6,1.6,0,0,1,110.64,4,1.62,1.62,0,1,1,110.2.75,1.6,1.6,0,0,1,112,2.15M103.38,19l-1.22-2.37h9.11c2.5,0,4,.18,4.9-1,.58-.74.79-1.42.79-3.16,0-2.21-3-4.58-5.84-4.58-4,0-5.06,2.37-6.16,5.37h-2.5s.34-1.26.6-2a8.07,8.07,0,0,1,8.06-5.69c4.73,0,8.37,4.11,8.37,7.74a8.23,8.23,0,0,1-.82,3.32h2.61V19Z"/><path class="cls-1" d="M130.73,1.83a1.62,1.62,0,1,1-1.82-1.4,1.61,1.61,0,0,1,1.82,1.4m6.74,10.66c0-2.21-2.82-4.58-6.85-4.58-2.84,0-6.79,2.37-6.79,4.58,0,1.74,0,2.42.63,3.16.9,1.13,3.64,1,6.14,1s5.34.18,6.24-1c.57-.74.63-1.42.63-3.16m-17.4,4.11h2.39c-.58-.56-1-1.06-1-3.32a7.18,7.18,0,0,1,2.61-5.37h-2.45l2.13-2.37h7.71c4.74,0,8.38,4.11,8.38,7.74,0,2.26-.43,2.76-1,3.32h2.39V19H120.07Z"/><polygon class="cls-1" points="144.07 16.6 144.07 0.28 146.44 0.28 146.44 16.6 149.44 16.6 149.44 18.99 140.39 18.96 140.39 16.6 144.07 16.6"/><polygon class="cls-1" points="152.29 16.6 152.29 0.22 154.66 0.22 154.66 18.96 148.6 18.96 148.6 16.6 152.29 16.6"/><path class="cls-1" d="M175.51,1.41A1.62,1.62,0,1,1,173.69,0a1.61,1.61,0,0,1,1.82,1.4m-3.48,0a1.6,1.6,0,0,1-1.37,1.81A1.62,1.62,0,1,1,172,1.41m-5.61,11.08c0,1.74-.15,2.47.43,3.21.89,1.13,2.92.9,5.42.9h5.39c2,0,.9-3.85.9-3.85-1.11-3-2.18-4.84-6.13-4.84-2.85,0-6,2.37-6,4.58M181,5.54V16.6h1.9V19H167.77a5.4,5.4,0,0,1-3-2.11c-.63-1.16-.68-1.32-.68-3.58,0-3.63,3.63-7.74,8.37-7.74a8.56,8.56,0,0,1,6.1,2.5l0-2.5Z"/><path class="cls-1" d="M193,11.75a6.22,6.22,0,0,1,1.45,5.77,3.66,3.66,0,0,1-.82,1.66c-.81,1.13-2,2.39-3.23,1.68-1.93-1.13-4.06-2.32-4.06-2.32l.35-2.63c.15,0,3.18,2.21,4.21,2.42,0,0,1.31-.07,1.31-2.5a3.16,3.16,0,0,0-3.42-3.29c-2.05,0-2.63,1-3,2.66-.34,1.48-.1,2.79-1.58,3.53a3.29,3.29,0,0,1-1.6.24h-.66V16.6h.66c.45,0,.92,0,.92-.37,0-2.48,1-5.93,5.71-5.93A5.43,5.43,0,0,1,193,11.75"/><polygon class="cls-1" points="202.67 18.96 196.62 18.96 196.62 0.22 198.99 0.22 198.99 16.6 202.67 16.6 202.67 18.96"/><path class="cls-1" d="M219.07,12.49c0-2.21-2.81-4.58-6.84-4.58-2.84,0-6.79,2.37-6.79,4.58,0,1.74.05,2.42.63,3.16.89,1.13,3.63,1,6.13,1s5.35.18,6.24-1c.58-.74.63-1.42.63-3.16m-17.4,4.11h2.4c-.58-.56-1-1.06-1-3.32a7.21,7.21,0,0,1,2.6-5.37h-2.44l2.13-2.37h7.71c4.74,0,8.37,4.11,8.37,7.74,0,2.26-.42,2.76-1,3.32h2.4V19H201.67Z"/><polygon class="cls-1" points="225.68 16.6 225.68 0.22 228.05 0.22 228.05 18.96 221.99 18.96 221.99 16.6 225.68 16.6"/><rect class="cls-1" x="231.26" y="0.22" width="2.37" height="18.74"/><path class="cls-1" d="M253.85,1.41a1.62,1.62,0,0,1-3.21.42,1.62,1.62,0,1,1,3.21-.42m-3.48,0A1.6,1.6,0,0,1,249,3.22,1.62,1.62,0,1,1,248.56,0a1.61,1.61,0,0,1,1.81,1.4m-5.6,11.08c0,1.74-.16,2.47.42,3.21.89,1.13,2.92.9,5.42.9H256c2,0,.89-3.85.89-3.85-1.1-3-2.18-4.84-6.13-4.84-2.84,0-6,2.37-6,4.58m14.55-6.95V16.6h1.9V19H246.11a5.4,5.4,0,0,1-3-2.11c-.63-1.16-.68-1.32-.68-3.58,0-3.63,3.63-7.74,8.37-7.74A8.61,8.61,0,0,1,256.88,8l0-2.5Z"/><path class="cls-1" d="M263.27,6.28c-.18-.19-.34-.37-.34-1.11a2.78,2.78,0,0,1,2.76-2.55,5.22,5.22,0,0,1,1.56.39l-.35.71a2.49,2.49,0,0,0-1.21-.34c-.92,0-2,.82-2,1.55,0,.53,0,.79.24,1,.29.39.86.34,1.68.34h1.82L267,7h-4.11V6.28ZM264,16.6V9.23h2.36V16.6h3V19l-9.06,0V16.6Z"/><path class="cls-1" d="M275.88,21.84a1.6,1.6,0,0,1-1.37,1.81,1.62,1.62,0,1,1,1.37-1.81m-3.47,0a1.62,1.62,0,1,1-1.82-1.4,1.61,1.61,0,0,1,1.82,1.4m-.56-5.24V9.23h2.37V16.6h3V19l-9.05,0V16.6Z"/><path class="cls-1" d="M293.47,12.49c0-2.08-3.35-4.55-6-4.55V16.6c2.63,0,4.53.08,5.34-1,.58-.74.64-1.42.64-3.16m-8.35-4.4c-2.71,0-5.29,2.56-5.29,4.4s.08,2.4.63,3.16c.76,1,4.66,1,4.66,1Zm0-3.39,2.37-1.08V5.54c4.71,0,8.35,4.11,8.35,7.74,0,2.26-.43,2.76-1,3.32h2.39V19H276.06V16.6h2.4c-.58-.56-1-1.06-1-3.32,0-3.11,2.84-6.69,7.66-7.56Z"/><polygon class="cls-1" points="299.97 16.6 299.97 0.22 302.34 0.22 302.34 18.96 296.28 18.96 296.28 16.6 299.97 16.6"/><rect class="cls-1" x="305.55" y="0.22" width="2.37" height="18.74"/><path class="cls-1" d="M10.3,35.72,8.4,36.85a3.43,3.43,0,0,0-1-1.21,2.43,2.43,0,0,0-1.3-.32,2.41,2.41,0,0,0-1.63.56,1.71,1.71,0,0,0-.64,1.37c0,.76.56,1.37,1.69,1.83l1.55.64a6.61,6.61,0,0,1,2.78,1.87,4.25,4.25,0,0,1,.87,2.71,4.77,4.77,0,0,1-1.43,3.55,5,5,0,0,1-3.59,1.41,4.73,4.73,0,0,1-3.34-1.21A5.61,5.61,0,0,1,.71,44.66l2.38-.52A4,4,0,0,0,3.66,46a2.43,2.43,0,0,0,2.12,1,2.44,2.44,0,0,0,1.82-.73,2.58,2.58,0,0,0,.73-1.87,2.72,2.72,0,0,0-.13-.83,2,2,0,0,0-.39-.69,3.46,3.46,0,0,0-.69-.6,7.83,7.83,0,0,0-1-.53L4.6,41.17q-3.19-1.35-3.19-4a3.74,3.74,0,0,1,1.35-2.93A4.86,4.86,0,0,1,6.1,33.1a4.67,4.67,0,0,1,4.2,2.62"/><path class="cls-1" d="M15.77,44a3.37,3.37,0,0,0,.76,2.29,2.45,2.45,0,0,0,1.95.9,2.64,2.64,0,0,0,2-.86,3.72,3.72,0,0,0,0-4.56,2.59,2.59,0,0,0-2-.88,2.5,2.5,0,0,0-1.95.89A3.27,3.27,0,0,0,15.77,44m5.4-4.86h2.27V49H21.17V48a4.38,4.38,0,0,1-6.4-.16A5.47,5.47,0,0,1,13.45,44a5.29,5.29,0,0,1,1.32-3.68,4.25,4.25,0,0,1,3.31-1.48,4.19,4.19,0,0,1,3.09,1.43Z"/><path class="cls-1" d="M30.22,39.17v5.62c0,1.62.64,2.43,1.93,2.43s1.94-.81,1.94-2.43V39.17h2.27v5.68a6.45,6.45,0,0,1-.29,2,3.48,3.48,0,0,1-1,1.38,4.31,4.31,0,0,1-2.94,1,4.28,4.28,0,0,1-2.92-1,3.44,3.44,0,0,1-1-1.38,5.52,5.52,0,0,1-.28-2V39.17Z"/><path class="cls-1" d="M42.3,44a3.41,3.41,0,0,0,.75,2.29,2.48,2.48,0,0,0,2,.9,2.6,2.6,0,0,0,2-.86,3.72,3.72,0,0,0,0-4.56,2.67,2.67,0,0,0-4,0A3.31,3.31,0,0,0,42.3,44m5.39-12.09H50V49H47.69V48a4.25,4.25,0,0,1-3,1.31,4.32,4.32,0,0,1-3.35-1.47A5.43,5.43,0,0,1,40,44a5.24,5.24,0,0,1,1.33-3.67,4.23,4.23,0,0,1,6.39-.07Z"/><path class="cls-1" d="M56.47,49H54.2V39.17h2.27Zm-2.61-13.9a1.47,1.47,0,0,1,2.94,0,1.43,1.43,0,0,1-.43,1,1.37,1.37,0,0,1-1,.43,1.47,1.47,0,0,1-1.48-1.49"/><polygon class="cls-1" points="76.52 35.63 71.09 35.63 71.09 39.35 76.32 39.35 76.32 41.57 71.09 41.57 71.09 48.98 68.77 48.98 68.77 33.41 76.52 33.41 76.52 35.63"/><path class="cls-1" d="M82.29,44a3.31,3.31,0,0,0,.79,2.33,3.06,3.06,0,0,0,4.25,0,3.66,3.66,0,0,0,0-4.57,2.77,2.77,0,0,0-2.13-.87,2.74,2.74,0,0,0-2.1.87A3.15,3.15,0,0,0,82.29,44M80,44a4.85,4.85,0,0,1,1.52-3.62,5.36,5.36,0,0,1,7.45,0,5.26,5.26,0,0,1,0,7.39,5.22,5.22,0,0,1-3.77,1.48,5,5,0,0,1-3.7-1.51A5.12,5.12,0,0,1,80,44"/><path class="cls-1" d="M95.94,44a3.31,3.31,0,0,0,.79,2.33,3.06,3.06,0,0,0,4.25,0,3.66,3.66,0,0,0,0-4.57,2.77,2.77,0,0,0-2.13-.87,2.74,2.74,0,0,0-2.1.87A3.15,3.15,0,0,0,95.94,44m-2.32,0a4.89,4.89,0,0,1,1.52-3.62,5.36,5.36,0,0,1,7.45,0,5.26,5.26,0,0,1,0,7.39,5.22,5.22,0,0,1-3.77,1.48,5,5,0,0,1-3.7-1.51A5.12,5.12,0,0,1,93.62,44"/><path class="cls-1" d="M110,44a3.41,3.41,0,0,0,.75,2.29,2.48,2.48,0,0,0,2,.9,2.64,2.64,0,0,0,2-.86,3.76,3.76,0,0,0,0-4.56,2.59,2.59,0,0,0-2-.88,2.53,2.53,0,0,0-2,.89A3.26,3.26,0,0,0,110,44m5.39-12.09h2.27V49H115.4V48a4.25,4.25,0,0,1-3,1.31A4.32,4.32,0,0,1,109,47.79,5.43,5.43,0,0,1,107.68,44,5.24,5.24,0,0,1,109,40.37a4.23,4.23,0,0,1,6.39-.07Z"/><path class="cls-1" d="M134.16,38.65l.2-.14c.33-.25.6-.47.81-.65a3.2,3.2,0,0,0,.46-.47,1.38,1.38,0,0,0,.31-.92,1.3,1.3,0,0,0-.42-1,1.56,1.56,0,0,0-1.1-.38,1.53,1.53,0,0,0-1.07.39,1.21,1.21,0,0,0-.43,1,2.12,2.12,0,0,0,.54,1.35l.58.71.12.15m-.49,3-.13.09a11.31,11.31,0,0,0-2,1.61,2,2,0,0,0-.51,1.28,2.67,2.67,0,0,0,2.55,2.55c.91,0,1.95-.6,3.14-1.78Zm1.86-1.33,2.81,3.39.09-.1c.3-.33.59-.65.86-1s.53-.63.77-1l1.54,1.57c-.19.27-.44.58-.75.94s-.67.76-1.09,1.23L142.65,49h-2.93l-1.55-1.91a6.22,6.22,0,0,1-4.46,2.22A5,5,0,0,1,130.2,48a4.36,4.36,0,0,1-1.41-3.29A4.57,4.57,0,0,1,131,40.8l1-.69.06,0,.15-.12a4.8,4.8,0,0,1-1.55-3.24,3.41,3.41,0,0,1,1-2.56,4.17,4.17,0,0,1,5.36,0,3.14,3.14,0,0,1,1,2.42,3.09,3.09,0,0,1-.58,1.83,9.76,9.76,0,0,1-2.05,2"/><path class="cls-1" d="M155.68,46.76h1.06a8.6,8.6,0,0,0,2.64-.34A5.31,5.31,0,0,0,163,41.19a5.37,5.37,0,0,0-1.72-4.14,6.53,6.53,0,0,0-4.57-1.42h-1.06ZM153.35,49V33.41h3.27a12.25,12.25,0,0,1,3.72.46A6.94,6.94,0,0,1,163,35.42a7.43,7.43,0,0,1,2.42,5.77,7.59,7.59,0,0,1-5.16,7.35,12,12,0,0,1-3.67.44Z"/><path class="cls-1" d="M169.15,39.17h2.27V40a4.17,4.17,0,0,1,1.11-.89,2.38,2.38,0,0,1,1.17-.27,3.67,3.67,0,0,1,1.87.59l-1,2.08a2.17,2.17,0,0,0-1.26-.47c-1.23,0-1.85.94-1.85,2.81V49h-2.27Z"/><path class="cls-1" d="M181.11,39.17v5.62c0,1.62.64,2.43,1.93,2.43s1.94-.81,1.94-2.43V39.17h2.27v5.68a6.45,6.45,0,0,1-.29,2,3.48,3.48,0,0,1-1,1.38,4.79,4.79,0,0,1-5.86,0,3.44,3.44,0,0,1-1-1.38,5.49,5.49,0,0,1-.29-2V39.17Z"/><path class="cls-1" d="M198.52,44.08a3.29,3.29,0,0,0-.77-2.28,2.56,2.56,0,0,0-2-.88,2.45,2.45,0,0,0-2,1,4,4,0,0,0,0,4.41,2.45,2.45,0,0,0,2,.93,2.49,2.49,0,0,0,2.06-.94,3.35,3.35,0,0,0,.7-2.2m2.17,4.67c0,.47,0,.87-.05,1.23s-.07.66-.12.93a4.22,4.22,0,0,1-1,1.9,4.58,4.58,0,0,1-3.66,1.54,4.9,4.9,0,0,1-3.24-1.06,4.36,4.36,0,0,1-1.52-3h2.28a2.65,2.65,0,0,0,.44,1.12,2.44,2.44,0,0,0,2.06.92q2.49,0,2.49-3.06V47.88a4.24,4.24,0,0,1-3.12,1.38A4.19,4.19,0,0,1,192,47.81a5.38,5.38,0,0,1-1.29-3.68,5.67,5.67,0,0,1,1.2-3.65,4.16,4.16,0,0,1,3.41-1.6,4,4,0,0,1,3.09,1.4V39.17h2.27Z"/><path class="cls-1" d="M221.31,43,219,37.69,216.58,43Zm1,2.22H215.6L213.87,49h-2.53L219,32.43,226.47,49H223.9Z"/><path class="cls-1" d="M231.46,39.17v5.62c0,1.62.65,2.43,1.94,2.43s1.94-.81,1.94-2.43V39.17h2.27v5.68a6.16,6.16,0,0,1-.3,2,3.39,3.39,0,0,1-1,1.38,4.79,4.79,0,0,1-5.86,0,3.54,3.54,0,0,1-1-1.38,5.75,5.75,0,0,1-.28-2V39.17Z"/><polygon class="cls-1" points="244.58 41.28 244.58 48.98 242.31 48.98 242.31 41.28 241.34 41.28 241.34 39.17 242.31 39.17 242.31 35.55 244.58 35.55 244.58 39.17 246.35 39.17 246.35 41.28 244.58 41.28"/><path class="cls-1" d="M249.4,31.94h2.27v8a4,4,0,0,1,2.67-1.09A3.44,3.44,0,0,1,257,40a4.39,4.39,0,0,1,.85,3v6h-2.27V43.16a2.79,2.79,0,0,0-.42-1.71,1.63,1.63,0,0,0-1.35-.53,1.88,1.88,0,0,0-1.68.74,5,5,0,0,0-.47,2.56V49H249.4Z"/><path class="cls-1" d="M263.68,44a3.35,3.35,0,0,0,.78,2.33,2.8,2.8,0,0,0,2.13.86,2.74,2.74,0,0,0,2.13-.86,3.7,3.7,0,0,0,0-4.57,2.77,2.77,0,0,0-2.13-.87,2.71,2.71,0,0,0-2.1.87,3.15,3.15,0,0,0-.81,2.24m-2.32,0a4.85,4.85,0,0,1,1.52-3.62,5.35,5.35,0,0,1,7.44,0,5.24,5.24,0,0,1,0,7.39,5.18,5.18,0,0,1-3.76,1.48,5,5,0,0,1-3.7-1.51A5.08,5.08,0,0,1,261.36,44"/><path class="cls-1" d="M275.61,39.17h2.27V40a4.51,4.51,0,0,1,1.11-.89,2.41,2.41,0,0,1,1.17-.27,3.64,3.64,0,0,1,1.87.59l-1,2.08a2.17,2.17,0,0,0-1.26-.47c-1.24,0-1.86.94-1.86,2.81V49h-2.27Z"/><path class="cls-1" d="M287.29,49H285V39.17h2.27Zm-2.6-13.9a1.47,1.47,0,0,1,1.46-1.46,1.43,1.43,0,0,1,1.05.43,1.39,1.39,0,0,1,.43,1,1.43,1.43,0,0,1-.43,1,1.39,1.39,0,0,1-1,.43,1.4,1.4,0,0,1-1-.43,1.43,1.43,0,0,1-.43-1.06"/><polygon class="cls-1" points="293.75 41.28 293.75 48.98 291.48 48.98 291.48 41.28 290.51 41.28 290.51 39.17 291.48 39.17 291.48 35.55 293.75 35.55 293.75 39.17 295.52 39.17 295.52 41.28 293.75 41.28"/><polygon class="cls-1" points="301.95 47.16 297.53 39.17 300.16 39.17 303.17 44.81 305.97 39.17 308.53 39.17 300.71 54.32 298.12 54.32 301.95 47.16"/><rect class="cls-1" x="0.05" y="28.05" width="307.62" height="0.72"/></g></g></svg>